<?xml version="1.0" encoding="utf-8"?>
<!-- Generator: Adobe Illustrator 19.2.0, SVG Export Plug-In . SVG Version: 6.00 Build 0)  -->
<svg version="1.1" id="Layer_1" xmlns="http://www.w3.org/2000/svg" xmlns:xlink="http://www.w3.org/1999/xlink" x="0px" y="0px"
	 width="24px" height="24px" viewBox="0 0 24 24" style="enable-background:new 0 0 24 24;" xml:space="preserve">
<g>
	<path d="M16.982,7.028c-0.195-0.195-0.512-0.195-0.707,0l-4.267,4.267L7.741,7.028c-0.195-0.195-0.512-0.195-0.707,0
		s-0.195,0.512,0,0.707l4.267,4.267l-4.267,4.267c-0.195,0.195-0.195,0.512,0,0.707c0.098,0.098,0.226,0.146,0.354,0.146
		s0.256-0.049,0.354-0.146l4.267-4.267l4.267,4.267c0.098,0.098,0.226,0.146,0.354,0.146s0.256-0.049,0.354-0.146
		c0.195-0.195,0.195-0.512,0-0.707l-4.267-4.267l4.267-4.267C17.178,7.54,17.178,7.223,16.982,7.028z"/>
	<path d="M12.007,0.12c-6.552,0-11.882,5.331-11.882,11.882s5.331,11.882,11.882,11.882s11.882-5.33,11.882-11.882
		S18.559,0.12,12.007,0.12z M12.007,22.885c-6,0-10.882-4.882-10.882-10.882c0-6,4.882-10.882,10.882-10.882
		c6,0,10.882,4.882,10.882,10.882C22.889,18.003,18.007,22.885,12.007,22.885z"/>
</g>
</svg>
